# xmcd
#
# Track frame offsets: 
#        150
#        64972
#        98999
#        129592
#        153636
#        177278
#        217648
#        265524
#        302790
#
# Disc length: 4422 seconds
#
# Revision: 0
# Processed by: cddbd v1.5.2PL0 Copyright (c) Steve Scherf et al.
# Submitted via: ExactAudioCopy v1.3
#
DISCID=77114409
DTITLE=Mark Knopfler - Live In Munich
DYEAR=2019
DGENRE=Blues
TTITLE0=Done With Bonaparte
TTITLE1=Heart Full Of Holes
TTITLE2=She's Gone__Your Latest Trick
TTITLE3=Postcards From Paraguay
TTITLE4=On Every Street
TTITLE5=Speedway At Nazareth
TTITLE6=Money For Nothing
TTITLE7=Piper To The End
TTITLE8=Going Home
EXTD=
EXTT0=
EXTT1=
EXTT2=
EXTT3=
EXTT4=
EXTT5=
EXTT6=
EXTT7=
EXTT8=
PLAYORDER=
